<svg xmlns="http://www.w3.org/2000/svg" viewBox="0 0 453.5 124.7">
    <path fill="#fff" d="m410.7 86 5-5.5c5.4 4.9 10.6 7.5 18 7.5 6.8 0 11.5-3.4 11.5-8.5 0-4.5-2.5-6.9-13.4-9.6-12.7-3.3-19.1-7.6-19.1-16.5 0-9.2 8.4-15.5 19.3-15.5 8 0 14 2.6 19.7 7.1l-4.6 6a23.2 23.2 0 0 0-15.2-6c-6.1 0-10.9 3-10.9 7.9 0 4.5 3 7 14.3 9.9 12.2 2.9 18.2 7.7 18.2 16.3 0 10-8.6 16.1-19.8 16.1a33 33 0 0 1-23-9.2ZM327.8 66.5c0-15.6 12.1-28.6 29-28.6s29 13 29 28.6-12.2 28.7-29 28.7-29-13-29-28.7Zm49.7 0c0-12-8.5-21.3-20.7-21.3s-20.7 9.2-20.7 21.3 8.6 21.3 20.7 21.3 20.7-9.1 20.7-21.3ZM302.6 38.8V46h-32.8v16.7H299V70h-29.2v17H303v7.3h-41.1V38.8ZM191 38.8l32.5 41v-41h8v55.5h-6.7l-33.3-42v42h-8V38.8Z"/>
    <path fill="#28234c" d="M89 0 68.3 15.1v31.7L89 76.1V0zM89 112.8 9.2 0 0 6.8v117.9l20.8-15.1V51.2l51.9 73.5h22.6l16.4-11.9H89z"/>
    <path fill="#fff" d="M20.8 51.2v58.4L0 124.7h22.7l20.8-15.1V83.3L20.8 51.2zM89 76.1V0h22.7v112.8H89L9.2 0h26L89 76.1z"/>
</svg>
