<svg xmlns="http://www.w3.org/2000/svg" viewBox="0 0 453.5 124.7">
    <path fill="#28234c" d="M410.7 86l5-5.5c5.5 4.9 10.6 7.5 18.1 7.5 6.7 0 11.5-3.4 11.5-8.5 0-4.5-2.5-6.9-13.5-9.7-12.7-3.2-19.1-7.6-19.1-16.5 0-9.2 8.5-15.5 19.3-15.5 8.1 0 14 2.6 19.7 7.1l-4.6 5.9c-5.3-4.1-9.7-5.9-15.2-5.9-6.1 0-10.9 3-10.9 7.8 0 4.6 3 7.1 14.3 9.9 12.2 2.9 18.2 7.8 18.2 16.3 0 10-8.6 16.2-19.9 16.2-8.9.1-16.3-3.1-22.9-9.1zM327.8 66.5c0-15.7 12.1-28.7 29-28.7s29 13 29 28.7-12.1 28.7-29 28.7-29-13-29-28.7zm49.7 0c0-12.1-8.5-21.3-20.7-21.3s-20.7 9.2-20.7 21.3 8.5 21.3 20.7 21.3 20.7-9.1 20.7-21.3zM302.5 38.8V46h-32.7v16.7H299V70h-29.2v17.1h33.1v7.2h-41.2V38.8h40.8zM191.1 38.8l32.5 40.9V38.8h7.9v55.4h-6.6l-33.4-42.1v42.1h-7.9V38.8h7.5zM89 0L68.3 15.1v31.7L89 76.1zM89 112.8L9.2 0 0 6.8v117.9l20.8-15.1V51.2l51.9 73.5h22.6l16.4-11.9z"/>
    <path fill="#009fe3" d="M20.8 51.2v58.4L0 124.7h22.7l20.8-15.1V83.3zM89 76.1V0h22.7v112.8H89L9.2 0h26z"/>
</svg>
